<?xml version='1.0' encoding='utf-8'?>
<svg xmlns="http://www.w3.org/2000/svg" width="1261px" height="440px"><text x="50" y="40" font_size="24" font_family="Arial" fill="#333333">Protein Domain Visualizations</text><g transform="translate(50, 80)"><text x="0" y="30" font_size="14" font_family="Arial" fill="#000000" text-anchor="start">DNTL</text><rect x="70" y="20" width="160.5" height="12" rx="3" fill="#AFABAB" stroke="#000000" stroke-width="1" /><rect x="70.0" y="14" width="160.5" height="24" rx="3" fill="#304b1f" stroke="#000000" stroke-width="1" /><text x="150.25" y="28" font_size="10" font_family="Arial" fill="#000000" text-anchor="middle" dominant-baseline="middle">Domain 1</text></g><g transform="translate(50, 120)"><text x="0" y="30" font_size="14" font_family="Arial" fill="#000000" text-anchor="start">EPL1</text><rect x="70" y="20" width="699.0" height="12" rx="3" fill="#AFABAB" stroke="#000000" stroke-width="1" /><rect x="223.0" y="14" width="310.5" height="24" rx="3" fill="#2bb298" stroke="#000000" stroke-width="1" /><text x="378.25" y="28" font_size="10" font_family="Arial" fill="#000000" text-anchor="middle" dominant-baseline="middle">Domain 4</text><rect x="601.0" y="14" width="168.0" height="24" rx="3" fill="#2bb298" stroke="#000000" stroke-width="1" /><text x="685.0" y="28" font_size="10" font_family="Arial" fill="#000000" text-anchor="middle" dominant-baseline="middle">Domain 7</text></g><g transform="translate(50, 160)"><text x="0" y="30" font_size="14" font_family="Arial" fill="#000000" text-anchor="start">HAT1</text><rect x="70" y="20" width="717.0" height="12" rx="3" fill="#AFABAB" stroke="#000000" stroke-width="1" /><rect x="70.0" y="14" width="102.0" height="24" rx="3" fill="#a62f68" stroke="#000000" stroke-width="1" /><text x="121.0" y="28" font_size="10" font_family="Arial" fill="#000000" text-anchor="middle" dominant-baseline="middle">Domain 1</text><rect x="256.0" y="14" width="531.0" height="24" rx="3" fill="#a62f68" stroke="#000000" stroke-width="1" /><text x="521.5" y="28" font_size="10" font_family="Arial" fill="#000000" text-anchor="middle" dominant-baseline="middle">Domain 3</text></g><g transform="translate(50, 200)"><text x="0" y="30" font_size="14" font_family="Arial" fill="#000000" text-anchor="start">YAF9</text><rect x="70" y="20" width="1041.0" height="12" rx="3" fill="#AFABAB" stroke="#000000" stroke-width="1" /><rect x="70.0" y="14" width="142.5" height="24" rx="3" fill="#405515" stroke="#000000" stroke-width="1" /><text x="141.25" y="28" font_size="10" font_family="Arial" fill="#000000" text-anchor="middle" dominant-baseline="middle">Domain 1</text><rect x="424.0" y="14" width="687.0" height="24" rx="3" fill="#405515" stroke="#000000" stroke-width="1" /><text x="767.5" y="28" font_size="10" font_family="Arial" fill="#000000" text-anchor="middle" dominant-baseline="middle">Domain 3</text></g><g transform="translate(50, 240)"><text x="0" y="30" font_size="14" font_family="Arial" fill="#000000" text-anchor="start">MRGBP</text><rect x="70" y="20" width="187.5" height="12" rx="3" fill="#AFABAB" stroke="#000000" stroke-width="1" /><rect x="70.0" y="14" width="187.5" height="24" rx="3" fill="#0117ca" stroke="#000000" stroke-width="1" /><text x="163.75" y="28" font_size="10" font_family="Arial" fill="#000000" text-anchor="middle" dominant-baseline="middle">Domain 1</text></g><g transform="translate(50, 280)"><text x="0" y="30" font_size="14" font_family="Arial" fill="#000000" text-anchor="start">EAF6</text><rect x="70" y="20" width="237.0" height="12" rx="3" fill="#AFABAB" stroke="#000000" stroke-width="1" /><rect x="121.0" y="14" width="165.0" height="24" rx="3" fill="#890422" stroke="#000000" stroke-width="1" /><text x="203.5" y="28" font_size="10" font_family="Arial" fill="#000000" text-anchor="middle" dominant-baseline="middle">Domain 2</text></g><g transform="translate(50, 320)"><text x="0" y="30" font_size="14" font_family="Arial" fill="#000000" text-anchor="start">INGL</text><rect x="70" y="20" width="319.5" height="12" rx="3" fill="#AFABAB" stroke="#000000" stroke-width="1" /><rect x="86.5" y="14" width="303.0" height="24" rx="3" fill="#bf4ea5" stroke="#000000" stroke-width="1" /><text x="238.0" y="28" font_size="10" font_family="Arial" fill="#000000" text-anchor="middle" dominant-baseline="middle">Domain 2</text></g><g transform="translate(50, 360)"><text x="0" y="30" font_size="14" font_family="Arial" fill="#000000" text-anchor="start">MRGx</text><rect x="70" y="20" width="288.0" height="12" rx="3" fill="#AFABAB" stroke="#000000" stroke-width="1" /><rect x="70.0" y="14" width="288.0" height="24" rx="3" fill="#991b42" stroke="#000000" stroke-width="1" /><text x="214.0" y="28" font_size="10" font_family="Arial" fill="#000000" text-anchor="middle" dominant-baseline="middle">Domain 1</text></g><g transform="translate(50, 400)"><text x="0" y="30" font_size="14" font_family="Arial" fill="#000000" text-anchor="start">BDF6</text><rect x="70" y="20" width="529.5" height="12" rx="3" fill="#AFABAB" stroke="#000000" stroke-width="1" /><rect x="70.0" y="14" width="142.5" height="24" rx="3" fill="#d4ca7e" stroke="#000000" stroke-width="1" /><text x="141.25" y="28" font_size="10" font_family="Arial" fill="#000000" text-anchor="middle" dominant-baseline="middle">Domain 1</text><rect x="302.5" y="14" width="297.0" height="24" rx="3" fill="#d4ca7e" stroke="#000000" stroke-width="1" /><text x="451.0" y="28" font_size="10" font_family="Arial" fill="#000000" text-anchor="middle" dominant-baseline="middle">Domain 3</text></g></svg>