<?xml version='1.0' encoding='utf-8'?>
<svg xmlns="http://www.w3.org/2000/svg" width="1261px" height="440px"><text x="50" y="40" font_size="24" font_family="Arial" fill="#333333">Protein Domain Visualizations</text><g transform="translate(50, 80)"><text x="0" y="30" font_size="14" font_family="Arial" fill="#000000" text-anchor="start">DNTL</text><rect x="70" y="20" width="160.5" height="12" rx="3" fill="#AFABAB" stroke="#000000" stroke-width="1" /><rect x="70.0" y="14" width="160.5" height="24" rx="3" fill="#e6d6af" stroke="#000000" stroke-width="1" /><text x="150.25" y="28" font_size="10" font_family="Arial" fill="#000000" text-anchor="middle" dominant-baseline="middle">DNTL</text></g><g transform="translate(50, 120)"><text x="0" y="30" font_size="14" font_family="Arial" fill="#000000" text-anchor="start">EPL1</text><rect x="70" y="20" width="699.0" height="12" rx="3" fill="#AFABAB" stroke="#000000" stroke-width="1" /><rect x="70.0" y="14" width="60.0" height="24" rx="3" fill="#4ECDC4" stroke="#000000" stroke-width="1" /><text x="100.0" y="28" font_size="10" font_family="Arial" fill="#000000" text-anchor="middle" dominant-baseline="middle">EPcA-NP</text><rect x="223.0" y="14" width="310.5" height="24" rx="3" fill="#4ECDC4" stroke="#000000" stroke-width="1" /><text x="378.25" y="28" font_size="10" font_family="Arial" fill="#000000" text-anchor="middle" dominant-baseline="middle">EPcA-E</text><rect x="601.0" y="14" width="168.0" height="24" rx="3" fill="#4ECDC4" stroke="#000000" stroke-width="1" /><text x="685.0" y="28" font_size="10" font_family="Arial" fill="#000000" text-anchor="middle" dominant-baseline="middle">EPcA-Y</text></g><g transform="translate(50, 160)"><text x="0" y="30" font_size="14" font_family="Arial" fill="#000000" text-anchor="start">HAT1</text><rect x="70" y="20" width="717.0" height="12" rx="3" fill="#AFABAB" stroke="#000000" stroke-width="1" /><rect x="70.0" y="14" width="102.0" height="24" rx="3" fill="#7b68ee" stroke="#000000" stroke-width="1" /><text x="121.0" y="28" font_size="10" font_family="Arial" fill="#000000" text-anchor="middle" dominant-baseline="middle">Tudor</text><rect x="256.0" y="14" width="531.0" height="24" rx="3" fill="#7b68ee" stroke="#000000" stroke-width="1" /><text x="521.5" y="28" font_size="10" font_family="Arial" fill="#000000" text-anchor="middle" dominant-baseline="middle">MYST HAT</text></g><g transform="translate(50, 200)"><text x="0" y="30" font_size="14" font_family="Arial" fill="#000000" text-anchor="start">YAF9</text><rect x="70" y="20" width="1041.0" height="12" rx="3" fill="#AFABAB" stroke="#000000" stroke-width="1" /><rect x="70.0" y="14" width="142.5" height="24" rx="3" fill="#FBBC05" stroke="#000000" stroke-width="1" /><text x="141.25" y="28" font_size="10" font_family="Arial" fill="#000000" text-anchor="middle" dominant-baseline="middle">CNTL</text><rect x="424.0" y="14" width="556.5" height="24" rx="3" fill="#FBBC05" stroke="#000000" stroke-width="1" /><text x="702.25" y="28" font_size="10" font_family="Arial" fill="#000000" text-anchor="middle" dominant-baseline="middle">YEATS</text><rect x="1042.0" y="14" width="69.0" height="24" rx="3" fill="#FBBC05" stroke="#000000" stroke-width="1" /><text x="1076.5" y="28" font_size="10" font_family="Arial" fill="#000000" text-anchor="middle" dominant-baseline="middle">α</text></g><g transform="translate(50, 240)"><text x="0" y="30" font_size="14" font_family="Arial" fill="#000000" text-anchor="start">MRGBP</text><rect x="70" y="20" width="187.5" height="12" rx="3" fill="#AFABAB" stroke="#000000" stroke-width="1" /><rect x="70.0" y="14" width="187.5" height="24" rx="3" fill="#99b403" stroke="#000000" stroke-width="1" /><text x="163.75" y="28" font_size="10" font_family="Arial" fill="#000000" text-anchor="middle" dominant-baseline="middle">MRGBP</text></g><g transform="translate(50, 280)"><text x="0" y="30" font_size="14" font_family="Arial" fill="#000000" text-anchor="start">EAF6</text><rect x="70" y="20" width="237.0" height="12" rx="3" fill="#AFABAB" stroke="#000000" stroke-width="1" /><rect x="121.0" y="14" width="165.0" height="24" rx="3" fill="#3D9CD6" stroke="#000000" stroke-width="1" /><text x="203.5" y="28" font_size="10" font_family="Arial" fill="#000000" text-anchor="middle" dominant-baseline="middle">EAF6</text></g><g transform="translate(50, 320)"><text x="0" y="30" font_size="14" font_family="Arial" fill="#000000" text-anchor="start">INGL</text><rect x="70" y="20" width="319.5" height="12" rx="3" fill="#AFABAB" stroke="#000000" stroke-width="1" /><rect x="86.5" y="14" width="303.0" height="24" rx="3" fill="#dc8ccb" stroke="#000000" stroke-width="1" /><text x="238.0" y="28" font_size="10" font_family="Arial" fill="#000000" text-anchor="middle" dominant-baseline="middle">Coiled-coil</text></g><g transform="translate(50, 360)"><text x="0" y="30" font_size="14" font_family="Arial" fill="#000000" text-anchor="start">MRGx</text><rect x="70" y="20" width="288.0" height="12" rx="3" fill="#AFABAB" stroke="#000000" stroke-width="1" /><rect x="70.0" y="14" width="288.0" height="24" rx="3" fill="#567c30" stroke="#000000" stroke-width="1" /><text x="214.0" y="28" font_size="10" font_family="Arial" fill="#000000" text-anchor="middle" dominant-baseline="middle">MRG</text></g><g transform="translate(50, 400)"><text x="0" y="30" font_size="14" font_family="Arial" fill="#000000" text-anchor="start">BDF6</text><rect x="70" y="20" width="529.5" height="12" rx="3" fill="#AFABAB" stroke="#000000" stroke-width="1" /><rect x="70.0" y="14" width="142.5" height="24" rx="3" fill="#a25851" stroke="#000000" stroke-width="1" /><text x="141.25" y="28" font_size="10" font_family="Arial" fill="#000000" text-anchor="middle" dominant-baseline="middle">NTD</text><rect x="302.5" y="14" width="297.0" height="24" rx="3" fill="#a25851" stroke="#000000" stroke-width="1" /><text x="451.0" y="28" font_size="10" font_family="Arial" fill="#000000" text-anchor="middle" dominant-baseline="middle">BD6</text></g></svg>